<?xml version="1.0" encoding="iso-8859-1"?>
<!-- Generator: Adobe Illustrator 19.0.0, SVG Export Plug-In . SVG Version: 6.00 Build 0)  -->
<svg version="1.1" id="Layer_1" xmlns="http://www.w3.org/2000/svg" xmlns:xlink="http://www.w3.org/1999/xlink" x="0px" y="0px"
	 viewBox="0 0 500 500" style="enable-background:new 0 0 500 500;" xml:space="preserve"><defs><style type="text/css"><![CDATA[g path, path {fill:#fff}svg :hover > path {fill:#181b27}]]></style></defs>
<g>
	<g>
		<path d="M304.67,171.808H97.718c-2.212,0-4,1.788-4,4c0,2.212,1.788,4,4,4H304.67c2.212,0,4-1.788,4-4
			C308.67,173.596,306.882,171.808,304.67,171.808z"/>
	</g>
</g>
<g>
	<g>
		<path d="M304.67,210.856H97.718c-2.212,0-4,1.788-4,4c0,2.212,1.788,4,4,4H304.67c2.212,0,4-1.788,4-4
			C308.67,212.644,306.882,210.856,304.67,210.856z"/>
	</g>
</g>
<g>
	<g>
		<path d="M304.67,249.908H97.718c-2.212,0-4,1.788-4,4c0,2.212,1.788,4,4,4H304.67c2.212,0,4-1.788,4-4
			C308.67,251.696,306.882,249.908,304.67,249.908z"/>
	</g>
</g>
<g>
	<g>
		<path d="M304.67,288.952H97.718c-2.212,0-4,1.788-4,4c0,2.212,1.788,4,4,4H304.67c2.212,0,4-1.788,4-4
			C308.67,290.74,306.882,288.952,304.67,288.952z"/>
	</g>
</g>
<g>
	<g>
		<path d="M402.286,328H257.81c-2.212,0-4,1.788-4,4c0,2.212,1.788,4,4,4h144.476c2.212,0,4-1.788,4-4
			C406.286,329.788,404.498,328,402.286,328z"/>
	</g>
</g>
<g>
	<g>
		<path d="M402.286,367.048H257.81c-2.212,0-4,1.788-4,4c0,2.212,1.788,4,4,4h144.476c2.212,0,4-1.788,4-4
			C406.286,368.836,404.498,367.048,402.286,367.048z"/>
	</g>
</g>
<g>
	<g>
		<path d="M402.286,406.092H257.81c-2.212,0-4,1.788-4,4c0,2.212,1.788,4,4,4h144.476c2.212,0,4-1.788,4-4
			C406.286,407.88,404.498,406.092,402.286,406.092z"/>
	</g>
</g>
<g>
	<g>
		<path d="M402.286,445.144H257.81c-2.212,0-4,1.788-4,4c0,2.212,1.788,4,4,4h144.476c2.212,0,4-1.788,4-4
			C406.286,446.932,404.498,445.144,402.286,445.144z"/>
	</g>
</g>
<g>
	<g>
		<path d="M402.286,171.808H339.81c-2.212,0-4,1.788-4,4c0,2.212,1.788,4,4,4h62.476c2.212,0,4-1.788,4-4
			C406.286,173.596,404.498,171.808,402.286,171.808z"/>
	</g>
</g>
<g>
	<g>
		<path d="M402.286,210.856H339.81c-2.212,0-4,1.788-4,4c0,2.212,1.788,4,4,4h62.476c2.212,0,4-1.788,4-4
			C406.286,212.644,404.498,210.856,402.286,210.856z"/>
	</g>
</g>
<g>
	<g>
		<path d="M402.286,249.908H339.81c-2.212,0-4,1.788-4,4c0,2.212,1.788,4,4,4h62.476c2.212,0,4-1.788,4-4
			C406.286,251.696,404.498,249.908,402.286,249.908z"/>
	</g>
</g>
<g>
	<g>
		<path d="M402.286,288.952H339.81c-2.212,0-4,1.788-4,4c0,2.212,1.788,4,4,4h62.476c2.212,0,4-1.788,4-4
			C406.286,290.74,404.498,288.952,402.286,288.952z"/>
	</g>
</g>
<g>
	<g>
		<path d="M433.526,0H66.478c-6.512,0-11.812,5.296-11.812,11.808v476.384c0,6.512,5.3,11.808,11.812,11.808h367.048
			c6.512,0,11.808-5.296,11.808-11.808V11.808C445.334,5.296,440.038,0,433.526,0z M437.334,488.192c0,2.1-1.708,3.808-3.808,3.808
			H66.478c-2.1,0-3.812-1.708-3.812-3.808V11.808c0-2.1,1.712-3.808,3.812-3.808h367.048c2.1,0,3.808,1.708,3.808,3.808V488.192z"/>
	</g>
</g>
<g>
	<g>
		<path d="M402.29,46.856H97.718c-2.212,0-4,1.788-4,4v85.904c0,2.212,1.788,4,4,4h304.568c2.212,0,4-1.788,4.004-4V50.856
			C406.29,48.644,404.502,46.856,402.29,46.856z M398.29,132.76H101.718V54.856H398.29V132.76z"/>
	</g>
</g>
<g>
	<g>
		<path d="M214.862,328H97.718c-2.212,0-4,1.788-4,4v117.144c0,2.212,1.788,4,4,4h117.144c2.212,0,4-1.788,4-4V332
			C218.862,329.788,217.074,328,214.862,328z M210.862,445.144H101.718V336h109.144V445.144z"/>
	</g>
</g>
<g>
</g>
<g>
</g>
<g>
</g>
<g>
</g>
<g>
</g>
<g>
</g>
<g>
</g>
<g>
</g>
<g>
</g>
<g>
</g>
<g>
</g>
<g>
</g>
<g>
</g>
<g>
</g>
<g>
</g>
</svg>
