<?xml version="1.0" encoding="iso-8859-1"?>
<!-- Generator: Adobe Illustrator 19.0.0, SVG Export Plug-In . SVG Version: 6.00 Build 0)  -->
<svg version="1.1" id="Capa_1" xmlns="http://www.w3.org/2000/svg" xmlns:xlink="http://www.w3.org/1999/xlink" x="0px" y="0px"
	 viewBox="0 0 511.999 511.999" style="enable-background:new 0 0 511.999 511.999;" xml:space="preserve"><defs><style type="text/css"><![CDATA[g path, path {fill:#ffcf02}svg :hover > path {fill:#181b27}]]></style></defs>
<g>
	<g>
		<path d="M256.002,54.999L256.002,54.999L256.002,54.999z M255.944,44.999l0.059,10L255.944,44.999z"/>
	</g>
</g>
<g>
	<g>
		<path d="M192.883,215.247c-7.819-16.535-24.683-27.22-42.961-27.22c-18.278,0-35.141,10.684-42.961,27.22
			c-2.361,4.993-0.228,10.954,4.765,13.315c4.991,2.36,10.953,0.228,13.315-4.765c4.53-9.58,14.297-15.77,24.881-15.77
			c10.584,0,20.351,6.19,24.881,15.77c1.708,3.613,5.3,5.728,9.047,5.728c1.432,0,2.887-0.309,4.268-0.963
			C193.111,226.201,195.244,220.24,192.883,215.247z"/>
	</g>
</g>
<g>
	<g>
		<path d="M405.04,215.247c-7.819-16.535-24.683-27.22-42.961-27.22c-18.278,0-35.141,10.684-42.961,27.22
			c-2.361,4.993-0.228,10.954,4.765,13.315c4.99,2.36,10.954,0.228,13.315-4.765c4.53-9.58,14.297-15.77,24.881-15.77
			c10.584,0,20.351,6.19,24.881,15.77c1.708,3.613,5.3,5.728,9.047,5.728c1.432,0,2.888-0.309,4.268-0.963
			C405.268,226.201,407.401,220.24,405.04,215.247z"/>
	</g>
</g>
<g>
	<g>
		<path d="M328.881,311.132h-144c-5.523,0-10,4.477-10,10c0,45.215,36.785,82,82,82c45.215,0,82-36.786,82-82
			C338.881,315.609,334.404,311.132,328.881,311.132z M256.881,383.132c-30.783,0-56.399-22.55-61.194-52h122.388
			C313.28,360.582,287.664,383.132,256.881,383.132z"/>
	</g>
</g>
<g>
	<g>
		<path d="M461.319,103.04c-3.305-4.424-9.569-5.332-13.996-2.028c-4.424,3.305-5.333,9.571-2.028,13.996
			c69.575,93.158,59.937,225.512-22.418,307.868c-92.016,92.016-241.738,92.016-333.754,0c-92.017-92.016-92.017-241.738,0-333.754
			c82.449-82.449,214.895-92.02,308.08-22.259c4.422,3.309,10.689,2.408,13.999-2.013c3.309-4.421,2.408-10.688-2.013-13.998
			C360.376,14.31,299.818-3.54,238.666,0.583C176.921,4.749,118.79,31.169,74.98,74.979C26.629,123.332,0,187.619,0,255.999
			s26.629,132.668,74.98,181.02c48.353,48.351,112.64,74.98,181.02,74.98s132.667-26.629,181.019-74.981
			c43.773-43.774,70.191-101.857,74.387-163.549C515.561,212.376,497.773,151.85,461.319,103.04z"/>
	</g>
</g>
<g>
	<g>
		<path d="M437.132,75.093l-0.189-0.19c-3.894-3.916-10.227-3.932-14.142-0.037c-3.916,3.895-3.932,10.227-0.037,14.142l0.189,0.19
			c1.954,1.964,4.521,2.947,7.089,2.947c2.55,0,5.102-0.969,7.053-2.91C441.011,85.34,441.027,79.008,437.132,75.093z"/>
	</g>
</g>
<g>
</g>
<g>
</g>
<g>
</g>
<g>
</g>
<g>
</g>
<g>
</g>
<g>
</g>
<g>
</g>
<g>
</g>
<g>
</g>
<g>
</g>
<g>
</g>
<g>
</g>
<g>
</g>
<g>
</g>
</svg>
