<?xml version="1.0" encoding="iso-8859-1"?>
<!-- Generator: Adobe Illustrator 19.0.0, SVG Export Plug-In . SVG Version: 6.00 Build 0)  -->
<svg version="1.1" id="Capa_1" xmlns="http://www.w3.org/2000/svg" xmlns:xlink="http://www.w3.org/1999/xlink" x="0px" y="0px"
	 viewBox="0 0 413.995 413.995" style="enable-background:new 0 0 413.995 413.995;" xml:space="preserve">
	<defs><style type="text/css"><![CDATA[g path, path {fill:#ffcf02;}svg :hover > path {fill:#181b27}]]></style></defs>
<g>
	<g>
		<path onmouseover="fill:#fff" d="M345.586,43.598c-1.2-1.2-2.8-1.6-4-1.6h-6c-1.6,0-3.2,0.4-4,1.6c-1.6,1.2-22,20-40,47.6l-89.2-80.8
			c-1.2-1.2-2.8-1.6-4-1.6c-2.4,0-2.4,0-100.4,92.4l-96,90.8c-2,1.6-2.4,4.4-1.6,6.8c0.8,2.4,3.2,4,5.6,4h45.6v196
			c0,3.6,2.8,6.4,6.4,6.4h280.4c3.6,0,6.4-2.8,6.4-6.4v-114l31.2-28.4c25.6-24,38.4-51.6,38-82.4
			C413.186,105.598,348.386,46.398,345.586,43.598z M331.986,392.798h-268v-0.4v-196c0-3.6-2.8-6.4-6.4-6.4h-36.4
			c37.2-34.8,153.2-144.8,176.8-166.8l86.4,79.2c-12,20.8-21.6,45.6-21.6,72c-0.4,30.8,12.4,58.4,38,82.4l31.2,28.4V392.798z
			 M367.586,247.198l-22.8,20.8v-102.8c0-3.6-2.8-6.4-6.4-6.4c-3.6,0-6.4,2.8-6.4,6.4v102.8l-22.8-20.8c-22.8-21.2-34.4-46-34-73.2
			c0.4-56.8,52.4-109.6,62.4-119.2h1.2c10,9.6,62,62.4,62.4,119.6C401.586,201.598,390.386,225.998,367.586,247.198z"/>
	</g>
</g>
<g>
	<g>
		<path d="M313.586,291.998c0-0.4-0.4-0.4-0.4-0.8c0-0.4-0.4-0.8-0.4-0.8l-18.8-20.8c-15.2-16-32.4-24.4-52-24.4
			c-44,0.4-81.6,41.6-83.2,43.2c-1.2,1.2-1.6,2.8-1.6,4v4c0,1.6,0.4,3.2,1.6,4c1.6,1.6,39.2,43.2,82.8,43.2c19.6,0,36.8-8,52-24.4
			l18.8-20.4c0.4-0.4,0.4-0.8,0.8-0.8c0-0.4,0.4-0.4,0.4-0.8c0.4-1.2,0.4-2,0.4-2.8S313.986,292.798,313.586,291.998z
			 M235.586,301.198h58.4l-9.2,9.6c-12.4,13.6-27.2,20.4-42.8,20.4c-32.8,0-63.2-28.4-71.6-36.8c8.4-8.4,38.8-36.8,71.6-36.8
			c16,0,30.4,6.8,42.8,20.4l9.2,10.4h-58.4c-3.6,0-6.4,2.8-6.4,6.4C229.186,298.398,231.986,301.198,235.586,301.198z"/>
	</g>
</g>
<g>
</g>
<g>
</g>
<g>
</g>
<g>
</g>
<g>
</g>
<g>
</g>
<g>
</g>
<g>
</g>
<g>
</g>
<g>
</g>
<g>
</g>
<g>
</g>
<g>
</g>
<g>
</g>
<g>
</g>
</svg>

