<svg width="10" height="10" viewBox="0 0 10 10" fill="none" xmlns="http://www.w3.org/2000/svg">
    <path d="M2.95078 4H1.05078V10H2.95078V4Z" fill="white"/>
    <circle cx="2.00078" cy="2.00493" r="1.075" fill="white"/>
    <path d="M7.67449 3.85033C8.83343 3.85033 10 4.55208 10 6.35713L9.98475 10.0047H8.07859V6.78868C8.07859 5.84301 7.62874 5.46774 7.02258 5.46774H6.95015C6.71789 5.49825 6.41156 5.55832 6.19741 5.80987C5.98327 6.06142 5.8786 6.48413 5.90616 6.8112V10.0047H4V4.00044H5.79179V5.01853H5.84516C6.05265 4.50523 6.32172 4.21007 6.57874 4.08107C6.91721 3.91119 7.29502 3.83163 7.67449 3.85033Z" fill="white"/>
</svg>
