<?xml version="1.0" encoding="iso-8859-1"?>
<!-- Generator: Adobe Illustrator 19.0.0, SVG Export Plug-In . SVG Version: 6.00 Build 0)  -->
<svg version="1.1" id="Layer_1" xmlns="http://www.w3.org/2000/svg" xmlns:xlink="http://www.w3.org/1999/xlink" x="0px" y="0px"
	 viewBox="0 0 512 512" style="enable-background:new 0 0 512 512;" xml:space="preserve"><defs><style type="text/css"><![CDATA[g path, path {fill:#ffcf02}svg :hover > path {fill:#181b27}]]></style></defs>
<g>
	<g>
		<path d="M334.291,305.163L312.518,165.82L326.28,8.941c0.202-2.297-0.57-4.573-2.128-6.273C322.594,0.967,320.395,0,318.089,0
			H197.086c-2.287,0-4.471,0.953-6.027,2.629s-2.344,3.925-2.173,6.205l11.461,153.718c-0.338,0.707-0.584,1.469-0.71,2.277
			L177.71,305.164c-0.263,1.688,0.005,3.417,0.77,4.947l70.166,140.333c1.392,2.786,4.24,4.545,7.354,4.545s5.962-1.76,7.354-4.545
			l70.167-140.334C334.286,308.581,334.554,306.851,334.291,305.163z M309.113,16.445l-12.406,141.43h-80.217l-10.545-141.43
			H309.113z M256,289.439c-12.393,0-22.475-10.082-22.475-22.475c0-12.393,10.082-22.475,22.475-22.475s22.475,10.082,22.475,22.475
			C278.475,279.357,268.393,289.439,256,289.439z M264.223,411.934V305.002c17.524-3.785,30.698-19.399,30.698-38.039
			c0-21.461-17.46-38.921-38.921-38.921s-38.921,17.461-38.921,38.922c0,18.64,13.174,34.254,30.698,38.039v106.932l-53.415-106.829
			l20.435-130.785h82.405l20.435,130.785L264.223,411.934z"/>
	</g>
</g>
<g>
	<g>
		<path d="M418.261,451.7h-43.854c-4.542,0-8.223,3.682-8.223,8.223v13.704H145.816v-13.704c0-4.541-3.68-8.223-8.223-8.223H93.739
			c-4.542,0-8.223,3.682-8.223,8.223v43.854c0,4.541,3.68,8.223,8.223,8.223h43.854c4.542,0,8.223-3.682,8.223-8.223v-13.704
			h220.368v13.704c0,4.541,3.68,8.223,8.223,8.223h43.854c4.542,0,8.223-3.682,8.223-8.223v-43.854
			C426.484,455.382,422.803,451.7,418.261,451.7z M129.37,495.555h-27.409v-27.409h27.409V495.555z M410.039,495.555H382.63v-27.409
			h27.409V495.555z"/>
	</g>
</g>
<g>
	<g>
		<path d="M457.73,254.355c-4.542,0-8.223,3.682-8.223,8.223c0,106.7-86.808,193.508-193.508,193.508S62.492,369.278,62.492,262.578
			c0-4.541-3.68-8.223-8.223-8.223c-4.542,0-8.223,3.682-8.223,8.223c0,115.768,94.184,209.953,209.953,209.953
			s209.953-94.185,209.953-209.953C465.953,258.037,462.272,254.355,457.73,254.355z"/>
	</g>
</g>
<g>
</g>
<g>
</g>
<g>
</g>
<g>
</g>
<g>
</g>
<g>
</g>
<g>
</g>
<g>
</g>
<g>
</g>
<g>
</g>
<g>
</g>
<g>
</g>
<g>
</g>
<g>
</g>
<g>
</g>
</svg>
