<svg height="512pt" viewBox="0 -4 512 512" width="512pt" xmlns="http://www.w3.org/2000/svg"><defs><style type="text/css"><![CDATA[g path, path {fill:#ffcf02}svg :hover > path {fill:#181b27}]]></style></defs><g fill-rule="evenodd"><path d="m10 367.941406h121.550781l-70.144531 121.492188c-1.785156 3.09375-1.785156 6.90625 0 10s5.089844 5 8.660156 5h70.796875c3.570313 0 6.875-1.90625 8.660157-5l75.914062-131.492188h61.125l75.914062 131.492188c1.785157 3.09375 5.085938 5 8.660157 5h70.796875c3.570312 0 6.871094-1.90625 8.660156-5 1.785156-3.09375 1.785156-6.90625 0-10l-70.144531-121.492188h121.550781c5.523438 0 10-4.476562 10-10v-51.238281s0-.003906 0-.007813v-238.65625c0-5.519531-4.476562-10-10-10h-205.34375v-48.039062c0-5.523438-4.480469-10-10-10h-61.3125c-5.523438 0-10 4.476562-10 10v48.039062h-205.34375c-5.523438 0-10 4.480469-10 10v289.902344c0 5.523438 4.476562 10 10 10zm125.089844 116.492188h-47.703125l67.257812-116.492188h47.699219zm289.523437 0h-47.703125l-67.253906-116.492188h47.699219zm67.386719-136.492188h-80.589844l-93.476562-92.074218 21.050781-21.046876c0-.003906.003906-.003906.007813-.007812l38.488281-38.488281 38.488281 38.488281s.003906.003906.003906.003906l76.027344 76.023438zm-168.953125-165.761718c0-30.011719 24.417969-54.429688 54.433594-54.429688s54.433593 24.417969 54.433593 54.429688c0 11.148437-3.328124 21.785156-9.515624 30.773437l-20.765626-20.761719-17.082031-17.082031c-.238281-.238281-.488281-.460937-.746093-.671875-.152344-.125-.3125-.238281-.472657-.351562-.105469-.078126-.207031-.160157-.316406-.234376-.214844-.140624-.4375-.269531-.660156-.394531-.058594-.03125-.117188-.070312-.175781-.105469-.234376-.121093-.472657-.230468-.710938-.332031-.058594-.027343-.117188-.058593-.175781-.082031-.226563-.09375-.453125-.171875-.6875-.246094-.078125-.027344-.15625-.058594-.238281-.082031-.203126-.0625-.410157-.109375-.617188-.15625-.113281-.027344-.222656-.058594-.335938-.082031-.179687-.035156-.359374-.054688-.539062-.082032-.144531-.019531-.285156-.046874-.429688-.0625-.160156-.015624-.320312-.015624-.480468-.023437-.164063-.007813-.324219-.023437-.484375-.023437-.164063 0-.324219.015624-.484375.023437s-.320313.007813-.480469.023437c-.144531.015626-.285156.042969-.425781.0625-.183594.027344-.367188.046876-.546875.082032-.109375.023437-.222657.054687-.332031.082031-.207032.046875-.414063.09375-.617188.15625-.085938.023437-.167969.058594-.253906.085937-.226563.074219-.449219.152344-.671875.242188-.066407.027344-.132813.0625-.199219.089844-.230469.101562-.460938.207031-.683594.324218-.074218.039063-.144531.085938-.214844.128907-.210937.117187-.421874.238281-.625.375-.125.082031-.238281.175781-.359374.261719-.144532.105468-.289063.207031-.429688.320312-.261719.210938-.507812.433594-.746094.671875l-25.566406 25.570313-12.277344 12.277343c-6.1875-8.992187-9.519531-19.628906-9.519531-30.777343zm-87.703125-162.179688h41.3125v38.039062h-41.3125zm-215.34375 323.019531 67.378906-64.21875c3.996094-3.8125 4.148438-10.140625.335938-14.136719-3.808594-4-10.136719-4.152343-14.136719-.339843l-53.578125 51.066406v-237.351563h472v204.519532l-55.296875-55.296875c9.855469-12.898438 15.210937-28.574219 15.210937-45.082031 0-41.039063-33.390624-74.429688-74.433593-74.429688s-74.433594 33.390625-74.433594 74.429688c0 16.507812 5.351563 32.183593 15.210937 45.082031l-14.570312 14.570312-94.65625-93.234375c-3.847656-3.789062-10.007812-3.839844-13.917969-.113281l-63.625 60.644531c-4 3.808594-4.148437 10.140625-.339843 14.136719 3.808593 3.996094 10.136718 4.148437 14.136718.339844l56.613282-53.960938 181.011718 178.296875h-362.910156zm0 0"/><path d="m109.433594 233.964844c-5.507813 0-10 4.492187-10 10 0 5.507812 4.492187 10 10 10 5.507812 0 10-4.492188 10-10 0-5.507813-4.492188-10-10-10zm0 0"/></g></svg>
