<svg width="20" height="17" viewBox="0 0 20 17" fill="none" xmlns="http://www.w3.org/2000/svg">
    <path d="M20 0.110599C19 0.600599 18.02 0.799599 17 1.1006C15.879 -0.164401 14.217 -0.234401 12.62 0.363599C11.023 0.961599 9.977 2.4236 10 4.1006V5.1006C6.755 5.1836 3.865 3.7056 2 1.1006C2 1.1006 -2.182 8.5336 6 12.1006C4.128 13.3476 2.261 14.1886 0 14.1006C3.308 15.9036 6.913 16.5236 10.034 15.6176C13.614 14.5776 16.556 11.8946 17.685 7.8756C18.0218 6.65327 18.189 5.39046 18.182 4.1226C18.18 3.8736 19.692 1.3506 20 0.109599V0.110599Z" fill="white"/>
</svg>
