<?xml version="1.0" encoding="UTF-8"?>
<!DOCTYPE svg PUBLIC "-//W3C//DTD SVG 1.1//EN" "http://www.w3.org/Graphics/SVG/1.1/DTD/svg11.dtd">
<!-- Creator: CorelDRAW -->
<svg xmlns="http://www.w3.org/2000/svg" xml:space="preserve" width="30.5037mm" height="10.0054mm" version="1.1" style="shape-rendering:geometricPrecision; text-rendering:geometricPrecision; image-rendering:optimizeQuality; fill-rule:evenodd; clip-rule:evenodd"
viewBox="0 0 2560.81 839.96"
 xmlns:xlink="http://www.w3.org/1999/xlink"
 xmlns:xodm="http://www.corel.com/coreldraw/odm/2003">
 <defs>
  <style type="text/css">
   <![CDATA[
    .fil0 {fill:white}
   ]]>
  </style>
   <clipPath id="id0">
    <rect width="566.56" height="839.96"/>
   </clipPath>
 </defs>
 <g id="Layer_x0020_1">
  <metadata id="CorelCorpID_0Corel-Layer"/>
  <g id="_105553314571968">
   <path class="fil0" d="M1726 579.34c-11.24,-12.69 -5.73,-69.38 4.5,-76.63 3.45,3.41 0.95,10.69 0.29,16.87 -3.92,36.62 -0.1,29.01 1.47,56.75 -1.96,1.4 -2.67,2.51 -6.26,3.01zm22.92 -150.3c-2.95,-9.88 -0.92,-10.44 3.48,-18.15 5.78,-10.15 2.54,-8.14 3.26,-18.46 0.42,-6.04 1.63,-2.48 3.59,-8.49 2.85,-8.77 -1.54,-22.89 6.12,-30 1.22,3.22 1.59,19.74 1.15,22.52 -0.96,6.2 -7.61,32.22 -10.34,37.03 -2.89,5.08 -4.23,11.69 -7.26,15.56zm680.6 113.98c-0.32,-9.35 0.72,-20.91 1.41,-30.37 0.57,-7.99 5.41,-15.94 7.96,-22.74 3.16,-8.46 2.01,-16.28 4.33,-26.07 5.36,-22.54 24.53,-116.2 28.55,-123.28 6.25,2.55 6.36,6.65 5.15,14.13 -1.57,9.69 -7.27,44.8 -9.81,49.14l-0.97 -11.97c-3.68,2.66 -14.04,69.44 -15.41,78.61l-11.48 59.19c-1.75,8.88 -0.56,12.12 -9.74,13.36zm-147.51 20.63c-7.33,7.3 -27.28,21.05 -39.13,19.22 -8.98,-1.38 -15.46,-6.38 -18.97,-11.27 -14.34,-19.98 -11.51,-72.84 3.77,-99.41 7.21,-12.54 5.32,-21.42 13.14,-33 10.23,-15.18 4.36,-12.37 8.97,-20.26 5.14,-8.79 10.07,-14.35 17.53,-27.47 16.34,-28.71 28.27,-45.71 48.52,-71.84 2.42,-3.11 4.31,-5.68 6.72,-9.02 11.17,-15.45 9.24,-8.47 14.12,-16.24 8.38,-13.31 8.88,-13.7 28.86,-9.49 16.24,3.43 10.32,3.2 19.84,40.93 1.56,6.19 0.8,7.53 5.08,10.62 3.7,2.68 5.57,2.64 4.81,9.55 -1.07,9.64 -5.15,17.34 -6.74,22.69 -5.39,18.13 -19.44,84.26 -18.93,101.76l-87.58 93.23zm-396.21 -278.16c-2.49,10.47 -49.98,129.19 -56.2,146.33 -5.04,13.9 -12.63,77.17 -16.88,83.25l-37.32 38.02c-12.93,13.45 -5.59,7.04 -10.03,14.52 -23.08,-2.22 -13.52,2.43 -27.07,2.46 -1.19,-10.05 -3.4,-13.19 -1.62,-24.28 1.21,-7.56 9.02,-53.65 8.35,-57.59 -0.77,-4.45 -2.75,-3.27 -3.51,-10.02l7.98 -0.03c3.08,-17.7 22.69,-84.04 21.15,-96.59 -1.02,-8.25 2.1,-24.92 2.95,-34.15l-6.83 -0.33c1.56,-5.51 -0.89,-14.86 -2.59,-20.99 -3.32,-12.01 -15.86,-17.59 -23.61,-25.95l-10.57 -12.25c-0.13,-0.18 -0.45,-0.34 -0.55,-0.79 -0.1,-0.45 -0.39,-0.53 -0.55,-0.81l-20.54 0.64c-7.51,20.86 -24.89,87.66 -32.28,113.97 -18.99,67.69 -18.47,53.07 -14.74,127.43 0.94,18.86 10.61,40.82 18.39,54.28 7.96,13.77 20.8,30.04 37.75,35.36 8.37,2.63 8.45,0.99 15.89,-0.13 6.34,-0.95 6.82,2.38 14.89,1.42 17.07,-2.04 12.17,-7.65 20.84,-15.14 4.86,-4.2 6.77,-3.22 12.13,-5.84 4.32,-2.12 4.4,-5.27 9.55,-8.44 9.96,-6.1 5.94,-13.69 16.22,-20.05 0.12,8.79 -0.92,24.68 0.46,32.53 3.12,17.87 26.48,30.35 34.69,28.74 4.06,-0.79 8.07,-2.88 12.27,-3.5 6.32,-0.95 7.71,-0.08 13.72,-2.01 2.75,-8.59 3.04,-17.92 7.02,-27.85 11.99,-29.87 10.67,-20.32 16.69,-53.18 1.21,-6.61 3.06,-6.26 5.49,-11.25 1.81,-3.7 3.33,-7.82 5,-11.86 21.37,-51.68 19.83,-48.13 46.79,-91.57 5.53,-8.92 21.5,-37.69 27.1,-42.66 12.27,-10.88 10.19,-16.25 31.36,-37.26 3.48,-3.46 5.95,-5.21 9.21,-8.76l25.43 -26.3c5.52,-5.85 13.48,-10.32 19.15,-15.76 4.24,-4.08 11.53,-14.33 19.89,-13.73 -0.86,6.98 -10.48,26.66 -13.73,34.52l-84.98 200.74c-6.47,14.94 -7.48,19.41 -9.81,37.45 -1.58,12.13 -5.31,33 -0.88,43.91 7.23,17.79 7.06,15.6 19.69,27.59 21.07,20.01 46.11,14.98 74.59,11.91 10.43,-1.12 10.88,-2.33 17.68,-7.21 4.8,-3.46 10.08,-5.29 14.45,-9.19 8.16,-7.3 14.77,-17.36 22.46,-24.77 3.9,-3.76 8.98,-6.82 12.48,-11.17 4.34,-5.41 4.47,-7.44 10.12,-13.49 3.13,-3.34 2.42,-4.73 5.14,-7.23 2.59,-2.37 4.37,-1.95 6.46,-4.77 4.31,-5.82 1.84,-11.9 9.76,-14.46 3.23,4.3 5.1,11.85 7.45,16.76 7.62,16.01 16.2,27.14 31.4,36.1 11.8,6.95 17.49,13.21 35.13,10.38 7.77,-1.24 26.95,-8.98 32.37,-12.58 25.13,-16.65 29.45,-23.47 48.91,-42.18 8.12,-7.81 15.4,-14.81 23.52,-22.61l19.6 -19.81c1.73,-1.28 3.35,-0.99 3.83,1.12l0.37 1.91c0.88,7.71 0.01,15.46 1.44,23.22 3.72,20.34 5.64,23.53 18.71,37.48 4.5,4.8 8.53,9.61 14.8,13.36 27.28,16.31 25.27,-6.75 33.56,-13.37 6.1,-4.88 10.44,-7.84 15.72,-12.4 9.84,-8.5 35.32,-33.38 42.4,-43.07 4.1,-5.6 9.87,-8.5 15.65,-12.48 9.64,-6.64 30.47,-35.83 38.42,-45.95 6.54,-8.34 4.94,-8.61 7.27,-20.86 1.79,-9.44 7.07,-12.89 5.18,-22.57 -8.98,-5.57 -11.38,1.6 -16.76,7.65l-69.75 73.08c-5.01,4.92 -22.24,26.9 -28.92,28.44 -1.18,-21.37 8.67,-38.28 9.95,-56.44 0.68,-9.74 2.62,-19.59 4.19,-29.59 4.3,-27.51 6.07,-11.77 8.71,-23.77l16.95 -83.35c1,-4.68 1.76,-9.08 2.81,-13.87 1.54,-7.07 2.68,-7.12 -2.37,-11.07 -2.8,1.82 -2.66,1.85 -3.99,6.15 -1.77,-4.27 -1.98,-10.49 -2.14,-16.08 -11.86,-8.92 -24.33,-32.34 -32.09,-37.6 -4.05,-2.75 -12.83,-4.39 -17.98,-4.32 -4.3,4.57 -9.49,15.4 -13.19,21.49 -4.42,7.3 -4.26,20.52 -9.31,24.16 -1.47,-2.92 -1.67,-9.02 -3.14,-12.32 -2.54,-5.72 -6.82,-17.18 -11.12,-20.37 -16.73,-12.42 -9,-7.72 -16.23,-14.25 -3.27,-2.94 -7.4,-1.7 -11.86,-2.71 -11.9,-2.69 -3.98,-6.1 -24.06,-6.29 -15.4,-0.14 -9.2,-5.05 -23.29,2.54l-20.29 10.07c-6.78,3.95 -13.43,7.22 -18.22,12.14l-60.59 62.02c-21.4,30.26 -35.72,67.37 -48.57,103.28 -6.96,19.43 -10.38,28.34 -10.77,51.77 -0.56,33.04 5.69,16.56 -15.93,44.15 -4.39,5.62 -9.24,11.48 -13.76,16.61 -10.01,11.35 -71.3,53.41 -87.2,64.67 -6.7,4.74 -16.36,5.68 -25.07,2.54 -10.65,-3.85 -6.27,-11.37 -3.24,-19.59 10.85,-29.37 23.5,-59.18 33.21,-88.27 5.22,-15.64 11.69,-29.08 18.13,-43.76 6.06,-13.78 12.11,-29.41 19.42,-41.32 4.03,-6.56 4.21,-15.88 7.6,-22.78l19.24 -41.51c6.27,-14.42 4.97,-8.39 11.49,-18.85 8.74,-14.04 15.19,-22.57 22.47,-39.42 3.41,-7.87 6.54,-13.26 10.28,-20.09 2.13,-3.89 6.01,-19.5 5.58,-25.21 -1.61,-21.15 -40.31,-43.06 -79.93,-18.75 -14.65,9 -44.26,25.08 -54.85,37.36 -4.71,5.47 -9.17,10.49 -14.02,16.35l-66.72 78.38c-1.96,3.46 0.04,1.31 -2.48,4.27 -11.1,13 -24.81,43.49 -32.76,58.4 -9.72,18.23 -10.69,27.91 -18.05,42.61 -3.48,6.93 -6.73,13.32 -10.11,20.27 -2.49,5.12 -6.11,15.87 -11.37,18.47 0.89,-3.97 2.59,-7.2 3.76,-11.46 1.08,-3.96 1.37,-8.26 2.39,-12.19 6.5,-24.86 26.7,-68.48 30.1,-90.46 2.69,-17.43 13.79,-29.84 16.78,-42.6 2.33,-9.96 1.13,-13.84 7.04,-22.24 9.77,-13.9 11.43,-24.3 18.02,-41.61 7.62,-20.01 9.43,-28.89 -2.75,-45.06 -3.94,-5.24 -13.47,-7.59 -20.25,-10.17 -5.43,-2.07 -5.57,-2.37 -10.59,0.19 -9.71,4.96 -14.41,6.83 -20.94,24.15 -1.46,3.86 -6.31,17.85 -8.13,19.93z"/>
   <path class="fil0" d="M759.15 347.7c13.04,-2.51 14.24,-24.24 17.05,-35.62 10.72,-43.46 9.16,-38.84 25.75,-80.03 5.05,-12.52 10,-24.51 15.03,-36.7 25.44,-61.61 8.46,-41.53 13.4,-59.68 1.95,-7.15 5.37,-12.21 6.11,-20.01 3.09,-32.55 -45.54,-51.48 -57.65,-45.3 -4.16,2.13 -9.89,9.27 -13.9,13.3 -13.54,13.58 -21.09,30.78 -30.09,48.67 -5.26,10.44 -12.43,25.44 -15.19,37.64 -3.18,14.08 -6.49,28.01 -9.86,41.89 -34.28,141.4 -65.98,282.83 -99.86,424.3 -4.3,17.93 -7.47,27.04 -4.78,46.81 1.96,14.46 5.73,28.45 12.47,39.34 12.49,20.16 39.21,40.35 64.48,41.74 8.74,0.48 17.13,-0.49 22.91,-4.61 12.05,-8.6 6.61,-28.39 8.62,-41.07 2.64,-16.67 -1.6,-35.37 0.86,-52.03 1.48,-10.02 4.02,-5.88 4,-22.06 -0.05,-22.94 11.57,-117.2 18.75,-137.01 0.21,0.14 0.47,0.39 0.56,0.49l1.56 1.68c0.16,0.21 1.05,1.64 1.3,2.06 26.53,43.41 56.25,84.71 88.91,123.74l15.09 16.35c9.65,11.02 20.36,22.74 30.87,32.13 61.84,55.19 115.89,93.53 200.89,114.05 36.49,8.81 127.01,30.47 163.51,14.05 3.86,-1.74 6.51,-3.91 10.23,-5.52 3.69,-1.61 7.6,-3.01 11.19,-4.56 27.24,-11.69 23,-15.92 32.07,-23.08 1.55,-1.23 3.62,-1.72 4.97,-2.88 4.29,-3.67 0.62,-6.3 4.18,-11.61 1.46,-2.17 5.98,-5.81 7.86,-7.84 20.07,-21.67 13.21,-19.98 21.14,-40.74 11.64,-30.42 -27.99,-33.87 -42.56,-29.06 -6.5,2.14 -19.5,0.66 -23.86,21.13 -3.8,17.9 -1.68,27.78 -26.77,36.23 -24.54,8.28 -28.94,10.23 -52.19,8.23 -4.45,-0.39 -10.19,-0.12 -14.45,-1.21 -2.95,-0.76 -6.79,-2.6 -12.06,-3.8 -28.75,-6.54 -64.04,-22.75 -91.59,-34.34 -19.9,-8.38 -72.96,-48.82 -94.13,-63.36 -13.45,-9.23 -21.68,-19.04 -32.6,-30.35l-14.62 -16.94c-4.94,-5.84 -10.2,-10.63 -14.85,-16.61 -4.9,-6.31 -9.54,-10.54 -14.6,-16.9 -2.43,-3.06 -4.8,-5.62 -7.19,-8.57 -2.43,-3.01 -5.13,-6.08 -7.25,-8.48l-28.19 -34.81c-9.1,-12.06 -18.08,-23.02 -26.7,-36.25 -4.39,-6.73 -7.2,-12.87 -11.77,-19.75 -2.26,-3.39 -4.42,-5.52 -6.76,-8.96 -6.15,-9.08 -9.51,-22.99 -17.79,-29.48 -5.42,-4.26 -9.25,-11.23 -13.9,-16.48 7.48,-7.51 113.21,-74.88 126.76,-83.61 6.8,-4.38 15.85,-9.99 20.11,-14.74 13.48,-15.01 31.05,-27.92 45.58,-42.19 3.57,-3.5 4.89,-5.26 8.49,-8.35 6.4,-5.47 11.79,-11.25 18.15,-16.73l13.73 -13.26c9.25,-11.34 10.86,-10.12 17.84,-24.9 2.68,-5.67 14.56,-29.91 18.29,-34.59 4.12,-5.15 4.88,-2.3 5.26,-11.27 0.72,-17.38 6.45,-40.1 -3.06,-45.2 -4.21,-2.26 -9.14,1.03 -13.34,2.59 -10.22,3.79 -4.73,3.02 -9.85,8.17 -2.86,2.89 -5.54,2.61 -9.35,7.51 -7.65,9.84 -17.19,18.39 -24.68,28.19 -2.74,3.58 -3.66,6.56 -6.88,9.99 -5.88,6.28 -11.12,11.62 -17.04,17.84 -22.47,23.57 -48.82,44.53 -74.24,65.22l-86.54 70.97c-4.06,4.69 -4,4.52 -8.95,7.92 -12.72,8.71 -27.86,20.81 -41.35,27.57l2.46 -9.25z"/>
   <path class="fil0" d="M1034.12 591.6c-0.43,-1.36 -0.87,-4.14 -1.05,-5.78 -1.1,-10.08 1.71,-25.56 1.92,-38.26 0.59,-35.65 6.05,-32.84 8.18,-46.06 1.77,-10.96 18.19,-74.22 27.84,-78.81 -0.14,17.3 -9.67,24.99 -12.91,39.68 -1.54,7 -2.81,14.63 -4.27,21.48 -1.53,7.17 -4.15,13.16 -6.02,19.95 -3.38,12.2 -5.02,31 -7.29,44.43 -1.63,9.66 -2.35,43.76 -4.05,47.77l-2.34 -4.39zm376.91 -40.65c-4.33,-8.03 -9.59,-8.21 -6.72,-20.22 3.79,-15.88 8.19,-31.67 12.16,-47.47 1.84,-7.33 1.07,-5.19 5.54,-9.08 12.66,-11.05 8.03,-16.59 17.11,-26.78 4.94,-5.55 5.26,-13.74 8.21,-22.15 4.01,-11.43 7.54,-10.94 12.09,-17.2 2.15,-2.96 3.46,-6.93 5.14,-9.44 1.78,-2.64 5.09,-5.35 6.32,-8.26 2.33,-5.5 -0.04,-4.38 4.37,-10.31l30.58 -43.63c16.25,-22.88 9.44,-19.38 29.84,-28.69 11.13,-5.09 10.44,-8.45 20.19,-0.6 17.29,13.94 12.68,52.91 10.43,72.89 -1.93,17 -25.06,93.9 -32.09,116.36 -1.51,4.84 -44.71,73.87 -51.34,81.43 -13.84,15.79 -22.42,32.14 -41.2,31.38l-30.63 -58.21zm-327.36 -145.11c-1.33,-3.96 9.68,-20.14 12.8,-25.5 3.48,-5.95 11.1,-20.2 14.73,-24.66 1.75,-2.16 2.94,-2.62 4.94,-5.12 6.93,-8.64 1.15,-5.41 15.01,-14.26 5.85,-3.74 6.05,-5.98 11.75,-8.5 6.9,-3.06 5.88,-6.35 11.34,-7.16 -0.34,2.58 -5.81,9.32 -7.81,11.8 -5.22,6.46 -13.7,8.29 -29.21,29.33 -5.82,7.91 -11.12,14.84 -16.8,22.56 -3.06,4.16 -6.2,7.4 -8.29,10.85 -7.33,12.06 -1.62,10.61 -8.49,10.66zm497.02 -294.58c0.4,-7.48 11.42,-20.26 16.2,-26.86 13.86,-19.1 -11.31,-41.61 -27.07,-49.98 -21.01,-11.16 -20.95,-0.5 -27.23,5.81 -8.05,8.08 -12.95,12.79 -20.57,22.15 -6.86,8.41 -11.04,14.88 -18.94,22.68 -9.47,9.34 -21.87,37.93 -29.61,53.58 -18.59,37.6 -37.03,74.87 -55.47,112.23 -3.69,7.47 -31.52,66.9 -36.06,69.62 -6.71,4 -35.36,12.75 -44.95,16.92 -32.9,14.29 -71.94,5.23 -105.9,-4.75 -5.94,-1.75 -10.68,-3.19 -15.79,-5.59 -18.71,-8.77 -31.98,12.14 -12.14,25.63 5.39,3.67 8.47,3.43 11.39,9.99 1.15,2.59 2.89,5.68 3.2,6.77 0.86,2.96 0.24,6.21 0.46,9.39 0.32,4.66 1.39,5.66 1.72,10.12 1.68,22.35 -2.5,44.13 -6.04,66.15 -0.97,5.98 -2.12,12.16 -3.18,18.18 -1.73,9.7 -0.27,8.08 -5.29,16.01 -4.96,7.84 0.41,6.2 -12.92,28.69 -7.1,11.97 -6.79,17.25 -16.14,25.48 -2.75,2.43 -2.96,2.64 -5.36,5.88l-10.29 9.95c-11.3,9.17 -28.02,27.17 -40.35,32.82 -15.91,7.28 -29.51,11.29 -47.23,14.48 -8.33,1.5 -27.09,5.52 -26.4,-9.36 3.56,1.8 3.84,2.62 7.67,-0.19 -0.68,-6.88 -7.35,-4.56 -9.13,-16.83 -3.27,-22.49 0.51,-48.02 6.54,-69.02 2.1,-7.32 4.74,-10.64 6.69,-19.25 3.47,-15.38 29.8,-75.92 37.23,-90.95 2.71,-5.5 7.36,-10.33 11.05,-14.82 7.4,-8.98 26.96,-36.53 34.78,-41.71 4.78,-3.16 28.22,-16.67 29.69,-20.76 -2.95,-3.29 -5.26,-2.45 -9.68,-3.5 -12.32,-2.92 22.31,-17.39 27.02,-19.66 2.18,-9.39 1.09,-26.7 1.18,-37.6 0.1,-11.85 -5.23,-19.39 -17.08,-21.47 -20.64,-3.62 -39.78,7.77 -56.21,18.26 -25.36,16.19 -21.58,12.79 -42.71,33.81 -2.72,2.7 -7.34,6.45 -9.74,9.35 -8.24,9.98 -17.86,21.32 -24.17,33.24 -8.81,16.66 -16.95,33.85 -25.51,50.97 -5.76,11.49 -22.33,40.93 -24.26,52.3 -3.69,21.79 -7.26,43.81 -10.85,65.62 -5.66,34.48 -3.37,34.39 0.73,67.78 2.64,21.46 16.69,39.3 27.61,48.63 38.64,33.03 41.87,9.68 51.99,11.1 2.67,0.38 2.65,1.49 8.3,1.68 8.87,0.3 16.37,-1.13 24.66,-3.62 18.51,-5.56 40.34,-10.45 55.26,-21.22 15.43,-11.13 29.65,-20.76 41.11,-35.36 11.95,-15.22 35.02,-56.37 40.46,-74.3 4.98,-16.41 8.6,-46.32 11.99,-64.52 7.31,-39.22 -2.34,-46.56 -1.91,-68.22 5.79,-1.47 24,4.2 30.03,6.02 32.12,9.73 61.63,6.34 92.79,-1.65 -1,8.02 -4.9,14.04 -6.31,21l-14.72 67.37c-3.39,14.78 -6.9,29.88 -10.49,44.61 -8.34,34.25 -20.69,110.82 17.84,130.41 47.05,23.93 33.04,-27.17 45.57,-51.92 5.46,1.32 10.75,11.2 13.65,16.31 5.6,9.85 13.25,15.61 19.86,24.02 8.92,11.32 13.74,17.06 26.07,17.74 14.27,0.8 44.54,1.57 54.53,-5.1 3.71,-2.48 4.65,-4.94 7.34,-7.28 7.59,-6.59 18.18,-11.89 25.06,-18.82l15.98 -14.37c9.16,-11.8 26.08,-40.03 34.48,-53.25 2.55,-4.02 9.67,-14.09 11.27,-17.92 3.01,-7.2 5.51,-13.73 8.45,-20.89 3.8,-9.26 23.51,-85.74 23.84,-94.04 1.31,-33.61 -0.22,-68.82 -22.36,-94.47 -6.49,-7.52 -5.25,-8.13 -13.91,-15.34 -15.74,-13.1 -37.59,-32.31 -62.05,-23.64 -8,2.83 -25.13,19.52 -32.68,25.85 -15.39,12.89 -27.13,32.18 -39.06,48.68l-12.56 15.62c-2.66,-11.93 7.77,-25.22 10.7,-35.44 1.18,-4.09 0.53,-6.41 1.7,-10.66 4.45,-16.22 18.85,-40.53 26.83,-55.32 5.57,-10.29 10.93,-20.25 16.29,-30.93 5.16,-10.3 10.7,-21.02 16.11,-31.2 4.52,-8.5 7.15,-9.78 9.58,-13.99 2.38,-4.15 5.1,-11.68 7.3,-16.29 7.63,-15.98 16.63,-30.34 26.84,-44.08 3.5,-4.72 5.82,-11.27 11.12,-12.36 -2.09,7.82 -21.55,36.75 -27.19,45.78 -5.87,9.4 -2.45,10.46 -10.81,25.2 -8.39,14.82 -16.5,32.14 -26.37,45.6 -11.77,16.04 -16.52,28.12 -25.34,46.61 -2.39,5.02 -12.01,20.22 -8.08,25.41 3.25,-2.48 10.81,-16.6 13.56,-21.01l11.3 -23.49c4,0.85 1.15,1.6 5.52,2 4.58,-7.58 5.83,-15.64 10.96,-23.84 4.51,-7.21 8.36,-13.78 12.8,-20.95 25.61,-41.33 2.86,-13.89 23.43,-45.21 4.55,-6.93 9.28,-13.68 13.97,-20.86 13.99,-21.42 13.84,-23.74 25.24,-43.36 2.51,-4.32 3.12,-6.82 6.06,-10.85 2.93,-4.03 5.92,-5.99 6.64,-10.31l-3.46 -2.36c-5.93,-1.33 -18.51,25.48 -26.06,27.24z"/>
   <path class="fil0" d="M1723.7 231.48c5.83,6.2 28.74,12.35 39.4,13.31 7.58,0.69 16.79,-1.12 24.36,-2.57 10.73,-2.05 9.08,-5.27 14.14,-12.72 3.86,-5.67 1.94,-0.33 11.28,-15.76 4.99,-8.23 18.51,-27.73 17.95,-36.22 -0.28,-4.25 -1.65,-21.53 -2.89,-24.24 -3.8,-8.29 -21.74,-21.57 -34.26,-13.86 -14.04,8.65 -25.94,12.64 -31.46,22.52 -5.51,9.84 -37.43,63.71 -38.52,69.53z"/>
  </g>
  <g style="clip-path:url(#id0)">
   <image id="kobina-head.png" x="-0" y="0.01" width="566.55" height="839.95" xlink:href="kobina-insigngia-wwh_Images/kobina-insigngia-wwh_ImgID1.png"/>
  </g>
 </g>
</svg>
