<?xml version="1.0" encoding="UTF-8"?>
<!DOCTYPE svg PUBLIC "-//W3C//DTD SVG 1.1//EN" "http://www.w3.org/Graphics/SVG/1.1/DTD/svg11.dtd">
<!-- Creator: CorelDRAW -->
<svg xmlns="http://www.w3.org/2000/svg" xml:space="preserve" width="23.307mm" height="9.389mm" version="1.1" style="shape-rendering:geometricPrecision; text-rendering:geometricPrecision; image-rendering:optimizeQuality; fill-rule:evenodd; clip-rule:evenodd"
viewBox="0 0 2475.71 997.32"
 xmlns:xlink="http://www.w3.org/1999/xlink"
 xmlns:xodm="http://www.corel.com/coreldraw/odm/2003">
 <defs>
  <style type="text/css">
   <![CDATA[
    .fil0 {fill:white}
   ]]>
  </style>
 </defs>
 <g id="Layer_x0020_1">
  <metadata id="CorelCorpID_0Corel-Layer"/>
  <g id="_105553314909248">
   <path class="fil0" d="M1419.43 695.62c-14.22,-16.06 -7.25,-87.78 5.69,-96.96 4.37,4.31 1.2,13.52 0.37,21.35 -4.96,46.33 -0.13,36.71 1.86,71.81 -2.47,1.77 -3.38,3.18 -7.92,3.8zm29 -190.17c-3.73,-12.5 -1.16,-13.2 4.41,-22.97 7.32,-12.84 3.22,-10.3 4.12,-23.36 0.53,-7.64 2.06,-3.14 4.55,-10.74 3.61,-11.1 -1.95,-28.97 7.74,-37.96 1.54,4.08 2.01,24.97 1.46,28.49 -1.21,7.85 -9.63,40.77 -13.09,46.85 -3.65,6.43 -5.35,14.8 -9.19,19.68zm861.15 144.22c-0.4,-11.83 0.91,-26.46 1.78,-38.43 0.72,-10.11 6.85,-20.17 10.07,-28.78 3.99,-10.71 2.54,-20.6 5.48,-32.98 6.78,-28.52 31.04,-147.02 36.13,-155.99 7.91,3.23 8.04,8.41 6.51,17.88 -1.99,12.26 -9.2,56.68 -12.41,62.18l-1.22 -15.15c-4.65,3.37 -17.76,87.87 -19.5,99.47l-14.52 74.89c-2.22,11.24 -0.71,15.34 -12.32,16.91zm-186.64 26.1c-9.27,9.23 -34.52,26.64 -49.51,24.32 -11.37,-1.74 -19.57,-8.07 -24.01,-14.27 -18.14,-25.28 -14.56,-92.16 4.77,-125.79 9.12,-15.87 6.73,-27.1 16.62,-41.76 12.94,-19.2 5.51,-15.65 11.34,-25.63 6.5,-11.12 12.74,-18.15 22.18,-34.76 20.67,-36.33 35.76,-57.84 61.39,-90.89 3.06,-3.93 5.45,-7.18 8.51,-11.41 14.13,-19.54 11.7,-10.72 17.87,-20.54 10.6,-16.84 11.24,-17.34 36.52,-12.01 20.54,4.33 13.05,4.05 25.1,51.79 1.98,7.83 1.01,9.53 6.43,13.44 4.68,3.39 7.04,3.34 6.09,12.08 -1.35,12.19 -6.51,21.93 -8.53,28.71 -6.82,22.94 -24.6,106.61 -23.95,128.75l-110.81 117.96zm-501.32 -351.96c-3.15,13.25 -63.24,163.46 -71.1,185.14 -6.37,17.59 -15.98,97.64 -21.36,105.34l-47.23 48.11c-16.36,17.02 -7.07,8.91 -12.69,18.38 -29.2,-2.8 -17.1,3.08 -34.26,3.11 -1.51,-12.71 -4.3,-16.69 -2.05,-30.72 1.53,-9.57 11.42,-67.89 10.57,-72.87 -0.98,-5.63 -3.47,-4.14 -4.44,-12.68l10.1 -0.04c3.9,-22.39 28.71,-106.34 26.76,-122.21 -1.29,-10.44 2.66,-31.54 3.73,-43.21l-8.65 -0.41c1.98,-6.97 -1.13,-18.8 -3.27,-26.56 -4.21,-15.2 -20.07,-22.25 -29.87,-32.83l-13.37 -15.5c-0.17,-0.22 -0.57,-0.42 -0.7,-1 -0.13,-0.57 -0.49,-0.67 -0.7,-1.02l-25.99 0.81c-9.5,26.4 -31.49,110.92 -40.84,144.21 -24.03,85.65 -23.37,67.15 -18.65,161.23 1.19,23.87 13.43,51.65 23.27,68.68 10.07,17.42 26.32,38.01 47.77,44.74 10.59,3.32 10.7,1.25 20.11,-0.16 8.02,-1.2 8.63,3.02 18.84,1.8 21.59,-2.58 15.4,-9.68 26.37,-19.15 6.15,-5.31 8.56,-4.08 15.35,-7.39 5.47,-2.68 5.57,-6.67 12.09,-10.68 12.6,-7.72 7.51,-17.32 20.52,-25.37 0.15,11.12 -1.16,31.23 0.58,41.16 3.95,22.61 33.5,38.4 43.89,36.37 5.14,-1 10.21,-3.64 15.53,-4.43 8,-1.2 9.75,-0.11 17.36,-2.54 3.47,-10.87 3.85,-22.68 8.88,-35.23 15.17,-37.79 13.5,-25.71 21.12,-67.29 1.53,-8.36 3.88,-7.92 6.95,-14.23 2.29,-4.68 4.22,-9.89 6.33,-15.01 27.04,-65.39 25.09,-60.9 59.21,-115.86 7,-11.28 27.2,-47.69 34.29,-53.98 15.52,-13.77 12.9,-20.56 39.67,-47.14 4.41,-4.38 7.53,-6.6 11.65,-11.09l32.17 -33.28c6.99,-7.4 17.06,-13.05 24.23,-19.94 5.36,-5.16 14.58,-18.13 25.16,-17.37 -1.09,8.83 -13.26,33.74 -17.37,43.68l-107.52 254c-8.19,18.91 -9.46,24.56 -12.42,47.39 -2,15.35 -6.71,41.76 -1.12,55.55 9.15,22.51 8.93,19.74 24.91,34.9 26.66,25.31 58.34,18.95 94.38,15.07 13.19,-1.42 13.77,-2.94 22.37,-9.12 6.08,-4.38 12.76,-6.69 18.28,-11.63 10.32,-9.24 18.68,-21.97 28.41,-31.35 4.94,-4.76 11.37,-8.63 15.8,-14.13 5.49,-6.84 5.65,-9.41 12.81,-17.07 3.96,-4.23 3.06,-5.99 6.5,-9.15 3.28,-3 5.53,-2.46 8.17,-6.03 5.45,-7.36 2.33,-15.05 12.35,-18.29 4.09,5.44 6.45,14.99 9.42,21.21 9.64,20.26 20.5,34.34 39.73,45.68 14.92,8.8 22.13,16.71 44.44,13.14 9.83,-1.57 34.1,-11.37 40.96,-15.92 31.79,-21.06 37.26,-29.7 61.88,-53.37 10.27,-9.88 19.49,-18.74 29.76,-28.61l24.8 -25.07c2.19,-1.61 4.24,-1.25 4.84,1.42l0.47 2.42c1.12,9.75 0.01,19.57 1.82,29.38 4.71,25.74 7.14,29.77 23.68,47.42 5.69,6.08 10.79,12.16 18.73,16.91 34.51,20.64 31.97,-8.54 42.46,-16.92 7.72,-6.17 13.21,-9.92 19.88,-15.69 12.45,-10.76 44.69,-42.23 53.65,-54.49 5.18,-7.09 12.49,-10.75 19.8,-15.78 12.19,-8.4 38.56,-45.34 48.61,-58.15 8.27,-10.56 6.26,-10.9 9.2,-26.4 2.26,-11.94 8.94,-16.32 6.55,-28.56 -11.37,-7.04 -14.39,2.03 -21.2,9.68l-88.25 92.47c-6.34,6.22 -28.14,34.03 -36.59,35.99 -1.5,-27.03 10.97,-48.44 12.59,-71.41 0.86,-12.32 3.31,-24.78 5.3,-37.44 5.44,-34.81 7.68,-14.89 11.03,-30.07l21.45 -105.46c1.26,-5.93 2.23,-11.49 3.56,-17.55 1.95,-8.94 3.39,-9.01 -3,-14.01 -3.54,2.31 -3.37,2.34 -5.05,7.78 -2.24,-5.41 -2.51,-13.27 -2.71,-20.35 -15.01,-11.28 -30.78,-40.92 -40.6,-47.58 -5.13,-3.48 -16.23,-5.56 -22.75,-5.47 -5.44,5.78 -12.01,19.48 -16.69,27.19 -5.59,9.23 -5.39,25.96 -11.78,30.57 -1.86,-3.7 -2.11,-11.41 -3.97,-15.59 -3.21,-7.23 -8.63,-21.73 -14.06,-25.77 -21.17,-15.72 -11.39,-9.76 -20.53,-18.03 -4.13,-3.72 -9.37,-2.16 -15.01,-3.43 -15.06,-3.4 -5.03,-7.72 -30.44,-7.96 -19.48,-0.18 -11.64,-6.39 -29.47,3.21l-25.67 12.75c-8.58,4.99 -17,9.14 -23.05,15.36l-76.66 78.48c-27.08,38.28 -45.2,85.24 -61.46,130.67 -8.81,24.58 -13.13,35.86 -13.63,65.51 -0.71,41.81 7.2,20.95 -20.15,55.86 -5.56,7.11 -11.7,14.53 -17.41,21.01 -12.66,14.36 -90.21,67.58 -110.33,81.82 -8.48,6 -20.7,7.19 -31.72,3.21 -13.48,-4.88 -7.93,-14.38 -4.1,-24.79 13.73,-37.16 29.73,-74.88 42.02,-111.68 6.61,-19.79 14.79,-36.8 22.94,-55.36 7.67,-17.44 15.32,-37.21 24.57,-52.28 5.1,-8.31 5.32,-20.1 9.61,-28.82l24.35 -52.52c7.93,-18.25 6.29,-10.61 14.54,-23.85 11.06,-17.77 19.22,-28.56 28.44,-49.88 4.31,-9.96 8.27,-16.78 13.01,-25.42 2.7,-4.92 7.61,-24.68 7.06,-31.9 -2.04,-26.76 -51.01,-54.48 -101.13,-23.72 -18.54,11.39 -56,31.73 -69.39,47.27 -5.96,6.92 -11.6,13.28 -17.74,20.69l-84.41 99.18c-2.47,4.38 0.05,1.66 -3.14,5.41 -14.04,16.45 -31.39,55.03 -41.45,73.9 -12.3,23.06 -13.52,35.31 -22.84,53.91 -4.4,8.76 -8.52,16.86 -12.79,25.65 -3.15,6.48 -7.73,20.08 -14.38,23.37 1.13,-5.02 3.28,-9.11 4.76,-14.5 1.37,-5.01 1.73,-10.45 3.03,-15.42 8.22,-31.45 33.78,-86.65 38.08,-114.45 3.41,-22.05 17.45,-37.75 21.23,-53.9 2.95,-12.61 1.43,-17.52 8.9,-28.14 12.36,-17.59 14.46,-30.75 22.8,-52.64 9.64,-25.31 11.93,-36.55 -3.47,-57.02 -4.98,-6.63 -17.04,-9.6 -25.62,-12.87 -6.87,-2.62 -7.05,-3 -13.39,0.24 -12.29,6.28 -18.23,8.65 -26.49,30.56 -1.85,4.89 -7.99,22.58 -10.29,25.22z"/>
   <path class="fil0" d="M196.1 402.53c16.5,-3.18 18.02,-30.68 21.57,-45.07 13.56,-54.99 11.59,-49.14 32.58,-101.26 6.38,-15.84 12.65,-31.02 19.01,-46.44 32.19,-77.96 10.71,-52.55 16.95,-75.51 2.46,-9.05 6.8,-15.44 7.73,-25.31 3.91,-41.18 -57.63,-65.14 -72.94,-57.32 -5.27,2.7 -12.51,11.73 -17.59,16.83 -17.13,17.19 -26.68,38.94 -38.07,61.58 -6.66,13.21 -15.73,32.19 -19.22,47.63 -4.03,17.81 -8.21,35.44 -12.47,53 -43.37,178.91 -83.48,357.86 -126.35,536.86 -5.44,22.69 -9.45,34.21 -6.04,59.23 2.49,18.3 7.25,36 15.77,49.78 15.81,25.51 49.61,51.05 81.59,52.81 11.06,0.61 21.68,-0.62 28.99,-5.83 15.24,-10.88 8.36,-35.92 10.91,-51.96 3.35,-21.1 -2.03,-44.75 1.08,-65.84 1.87,-12.68 5.09,-7.45 5.06,-27.92 -0.06,-29.02 14.64,-148.29 23.73,-173.35 0.27,0.18 0.59,0.49 0.71,0.62l1.98 2.12c0.2,0.27 1.33,2.07 1.65,2.6 33.57,54.93 71.17,107.19 112.5,156.57l19.1 20.68c12.22,13.95 25.76,28.78 39.06,40.65 78.24,69.83 146.63,118.34 254.19,144.3 46.16,11.14 160.7,38.55 206.89,17.78 4.89,-2.2 8.24,-4.95 12.94,-6.98 4.67,-2.04 9.61,-3.81 14.16,-5.77 34.47,-14.8 29.1,-20.14 40.58,-29.2 1.97,-1.55 4.58,-2.18 6.29,-3.64 5.43,-4.64 0.79,-7.98 5.29,-14.69 1.85,-2.75 7.56,-7.35 9.94,-9.92 25.4,-27.42 16.71,-25.28 26.75,-51.55 14.72,-38.48 -35.41,-42.85 -53.85,-36.77 -8.22,2.71 -24.68,0.84 -30.19,26.74 -4.81,22.65 -2.12,35.15 -33.87,45.85 -31.05,10.47 -36.61,12.94 -66.04,10.41 -5.63,-0.49 -12.9,-0.15 -18.28,-1.53 -3.73,-0.97 -8.59,-3.29 -15.25,-4.81 -36.38,-8.27 -81.03,-28.79 -115.89,-43.44 -25.19,-10.6 -92.32,-61.77 -119.11,-80.17 -17.02,-11.68 -27.44,-24.09 -41.25,-38.4l-18.49 -21.44c-6.26,-7.39 -12.91,-13.45 -18.79,-21.02 -6.2,-7.99 -12.07,-13.34 -18.47,-21.38 -3.08,-3.87 -6.08,-7.11 -9.1,-10.85 -3.08,-3.81 -6.49,-7.69 -9.18,-10.73l-35.67 -44.04c-11.51,-15.25 -22.88,-29.13 -33.79,-45.87 -5.56,-8.52 -9.11,-16.28 -14.89,-24.98 -2.86,-4.29 -5.6,-6.98 -8.55,-11.33 -7.79,-11.49 -12.03,-29.09 -22.51,-37.29 -6.86,-5.39 -11.71,-14.21 -17.59,-20.85 9.46,-9.5 143.24,-94.75 160.38,-105.79 8.6,-5.54 20.05,-12.64 25.45,-18.65 17.06,-18.99 39.29,-35.33 57.67,-53.38 4.51,-4.43 6.18,-6.66 10.74,-10.57 8.09,-6.93 14.91,-14.23 22.97,-21.17l17.37 -16.78c11.71,-14.35 13.75,-12.81 22.57,-31.51 3.39,-7.17 18.42,-37.85 23.15,-43.76 5.22,-6.52 6.17,-2.91 6.65,-14.27 0.91,-21.99 8.16,-50.74 -3.87,-57.19 -5.33,-2.86 -11.57,1.31 -16.88,3.27 -12.93,4.8 -5.98,3.82 -12.46,10.34 -3.62,3.65 -7.01,3.3 -11.83,9.5 -9.68,12.45 -21.75,23.27 -31.23,35.67 -3.46,4.54 -4.63,8.3 -8.7,12.64 -7.44,7.95 -14.06,14.7 -21.56,22.57 -28.42,29.83 -61.77,56.34 -93.93,82.52l-109.49 89.8c-5.14,5.94 -5.07,5.73 -11.32,10.02 -16.09,11.03 -35.26,26.33 -52.31,34.88l3.11 -11.71z"/>
   <path class="fil0" d="M544.02 711.13c-0.54,-1.72 -1.1,-5.24 -1.33,-7.32 -1.39,-12.76 2.17,-32.34 2.43,-48.41 0.74,-45.1 7.66,-41.55 10.35,-58.28 2.24,-13.87 23.02,-93.91 35.22,-99.72 -0.18,21.89 -12.24,31.62 -16.34,50.21 -1.94,8.86 -3.56,18.51 -5.41,27.18 -1.93,9.07 -5.25,16.64 -7.62,25.24 -4.28,15.43 -6.35,39.23 -9.22,56.21 -2.06,12.23 -2.97,55.36 -5.13,60.44l-2.96 -5.56zm476.9 -51.43c-5.48,-10.15 -12.13,-10.39 -8.51,-25.58 4.79,-20.1 10.37,-40.08 15.38,-60.07 2.33,-9.27 1.35,-6.56 7.01,-11.49 16.02,-13.98 10.17,-20.99 21.65,-33.88 6.26,-7.02 6.65,-17.39 10.39,-28.02 5.08,-14.47 9.54,-13.84 15.3,-21.76 2.72,-3.74 4.38,-8.77 6.5,-11.95 2.25,-3.35 6.44,-6.77 8,-10.45 2.94,-6.96 -0.05,-5.54 5.53,-13.04l38.7 -55.2c20.56,-28.96 11.95,-24.53 37.76,-36.31 14.09,-6.44 13.21,-10.7 25.55,-0.76 21.88,17.63 16.05,66.94 13.19,92.22 -2.44,21.51 -31.71,118.81 -40.6,147.22 -1.91,6.13 -56.57,93.46 -64.97,103.04 -17.51,19.98 -28.37,40.67 -52.13,39.71l-38.75 -73.65zm-414.2 -183.6c-1.69,-5.01 12.25,-25.48 16.2,-32.26 4.4,-7.53 14.04,-25.56 18.64,-31.2 2.22,-2.73 3.72,-3.31 6.26,-6.48 8.77,-10.93 1.46,-6.84 18.99,-18.05 7.4,-4.74 7.66,-7.56 14.87,-10.75 8.73,-3.87 7.44,-8.03 14.35,-9.06 -0.42,3.26 -7.35,11.79 -9.88,14.92 -6.61,8.18 -17.34,10.48 -36.95,37.11 -7.36,10.01 -14.07,18.78 -21.26,28.54 -3.88,5.26 -7.84,9.37 -10.48,13.72 -9.27,15.25 -2.05,13.43 -10.74,13.49zm628.88 -372.73c0.51,-9.46 14.45,-25.63 20.5,-33.98 17.54,-24.17 -14.31,-52.65 -34.25,-63.23 -26.59,-14.12 -26.5,-0.64 -34.46,7.35 -10.19,10.23 -16.38,16.19 -26.02,28.03 -8.68,10.64 -13.97,18.83 -23.96,28.7 -11.98,11.82 -27.67,47.99 -37.46,67.79 -23.52,47.58 -46.85,94.73 -70.19,142 -4.66,9.45 -39.88,84.65 -45.62,88.09 -8.49,5.06 -44.74,16.14 -56.87,21.4 -41.63,18.08 -91.02,6.62 -134,-6.01 -7.52,-2.21 -13.51,-4.04 -19.98,-7.07 -23.68,-11.1 -40.46,15.36 -15.36,32.43 6.82,4.64 10.72,4.34 14.41,12.64 1.46,3.27 3.65,7.19 4.05,8.56 1.09,3.75 0.31,7.86 0.58,11.88 0.4,5.9 1.75,7.16 2.18,12.8 2.12,28.28 -3.17,55.84 -7.64,83.7 -1.22,7.56 -2.68,15.39 -4.03,23.01 -2.19,12.27 -0.34,10.23 -6.69,20.26 -6.28,9.92 0.52,7.85 -16.35,36.31 -8.99,15.15 -8.59,21.83 -20.43,32.24 -3.47,3.07 -3.75,3.34 -6.79,7.44l-13.02 12.59c-14.3,11.6 -35.46,34.38 -51.05,41.53 -20.13,9.21 -37.34,14.29 -59.76,18.32 -10.54,1.9 -34.28,6.98 -33.41,-11.84 4.5,2.28 4.86,3.31 9.71,-0.24 -0.86,-8.7 -9.29,-5.77 -11.56,-21.3 -4.14,-28.46 0.65,-60.76 8.27,-87.34 2.66,-9.26 6,-13.46 8.47,-24.36 4.39,-19.46 37.71,-96.06 47.11,-115.08 3.43,-6.96 9.32,-13.08 13.98,-18.75 9.36,-11.37 34.11,-46.22 44.01,-52.77 6.04,-3.99 35.7,-21.1 37.56,-26.27 -3.73,-4.16 -6.65,-3.1 -12.25,-4.43 -15.58,-3.7 28.23,-22 34.18,-24.88 2.76,-11.88 1.38,-33.78 1.5,-47.58 0.13,-15 -6.62,-24.54 -21.61,-27.17 -26.12,-4.58 -50.33,9.84 -71.12,23.1 -32.09,20.48 -27.31,16.18 -54.05,42.78 -3.44,3.42 -9.28,8.16 -12.32,11.83 -10.42,12.63 -22.6,26.98 -30.58,42.06 -11.14,21.07 -21.45,42.83 -32.28,64.49 -7.29,14.54 -28.26,51.78 -30.7,66.18 -4.67,27.56 -9.19,55.43 -13.72,83.03 -7.16,43.63 -4.26,43.52 0.92,85.76 3.34,27.15 21.12,49.72 34.94,61.53 48.89,41.79 52.97,12.25 65.78,14.04 3.38,0.48 3.36,1.88 10.51,2.12 11.22,0.38 20.71,-1.43 31.2,-4.58 23.42,-7.03 51.04,-13.22 69.92,-26.85 19.52,-14.09 37.52,-26.27 52.02,-44.74 15.12,-19.26 44.31,-71.33 51.2,-94.02 6.3,-20.77 10.88,-58.6 15.17,-81.63 9.25,-49.63 -2.96,-58.91 -2.41,-86.32 7.33,-1.86 30.37,5.31 38,7.62 40.64,12.31 77.98,8.02 117.41,-2.09 -1.26,10.14 -6.2,17.76 -7.99,26.58l-18.63 85.24c-4.29,18.7 -8.73,37.8 -13.27,56.45 -10.55,43.34 -26.18,140.21 22.57,165.01 59.53,30.27 41.81,-34.38 57.66,-65.69 6.9,1.67 13.6,14.17 17.27,20.64 7.09,12.46 16.76,19.75 25.13,30.39 11.28,14.33 17.39,21.58 32.98,22.44 18.06,1.01 56.36,1.99 68.99,-6.46 4.7,-3.13 5.88,-6.26 9.28,-9.21 9.6,-8.34 23,-15.04 31.71,-23.81l20.21 -18.19c11.59,-14.92 33,-50.65 43.63,-67.38 3.23,-5.09 12.24,-17.82 14.27,-22.68 3.81,-9.11 6.97,-17.38 10.7,-26.43 4.81,-11.72 29.75,-108.48 30.17,-118.99 1.66,-42.53 -0.28,-87.08 -28.29,-119.53 -8.21,-9.52 -6.64,-10.28 -17.6,-19.41 -19.92,-16.58 -47.57,-40.88 -78.51,-29.91 -10.12,3.58 -31.79,24.7 -41.35,32.71 -19.47,16.32 -34.33,40.71 -49.43,61.6l-15.89 19.77c-3.37,-15.09 9.84,-31.91 13.54,-44.85 1.49,-5.17 0.67,-8.1 2.15,-13.49 5.63,-20.52 23.85,-51.28 33.95,-69.99 7.04,-13.02 13.83,-25.62 20.61,-39.13 6.53,-13.03 13.54,-26.6 20.38,-39.48 5.71,-10.76 9.05,-12.37 12.12,-17.71 3.01,-5.25 6.45,-14.78 9.23,-20.61 9.66,-20.22 21.04,-38.39 33.96,-55.78 4.43,-5.97 7.36,-14.27 14.07,-15.64 -2.64,9.9 -27.27,46.5 -34.41,57.92 -7.42,11.9 -3.1,13.24 -13.68,31.89 -10.61,18.75 -20.87,40.67 -33.36,57.7 -14.89,20.3 -20.9,35.57 -32.06,58.97 -3.03,6.35 -15.2,25.59 -10.23,32.15 4.11,-3.14 13.68,-21 17.15,-26.59l14.3 -29.72c5.06,1.07 1.46,2.02 6.98,2.53 5.8,-9.59 7.38,-19.79 13.86,-30.17 5.7,-9.12 10.58,-17.43 16.2,-26.5 32.4,-52.29 3.62,-17.57 29.65,-57.2 5.76,-8.77 11.74,-17.31 17.68,-26.4 17.7,-27.1 17.51,-30.04 31.94,-54.86 3.18,-5.47 3.95,-8.63 7.67,-13.72 3.71,-5.1 7.49,-7.58 8.4,-13.04l-4.38 -2.98c-7.5,-1.68 -23.42,32.24 -32.97,34.47z"/>
   <path class="fil0" d="M1416.53 255.47c7.37,7.84 36.36,15.63 49.85,16.85 9.59,0.87 21.24,-1.42 30.83,-3.25 13.58,-2.59 11.48,-6.67 17.89,-16.09 4.89,-7.17 2.45,-0.41 14.28,-19.94 6.31,-10.41 23.42,-35.09 22.71,-45.82 -0.35,-5.37 -2.08,-27.25 -3.65,-30.68 -4.81,-10.48 -27.51,-27.29 -43.35,-17.54 -17.77,10.94 -32.82,16 -39.81,28.5 -6.97,12.45 -47.35,80.61 -48.73,87.97z"/>
  </g>
 </g>
</svg>
